<svg width="46" height="48" viewBox="0 0 46 48" fill="none" xmlns="http://www.w3.org/2000/svg">
<path d="M5.30938 14.6394L15.6451 23.9999L5.30938 33.3605C4.68758 33.9237 4.62088 34.9062 5.16064 35.5551C5.7004 36.204 6.64197 36.2733 7.26376 35.7103L17.9196 26.0599L22.0229 29.776C22.3032 30.0299 22.6516 30.1567 23.0001 30.1567C23.3485 30.1567 23.6969 30.0299 23.9772 29.776L28.0805 26.0599L38.7363 35.7103C39.3581 36.2734 40.2997 36.204 40.8395 35.5551C41.3792 34.9062 41.3125 33.9237 40.6907 33.3605L30.355 23.9999L40.6907 14.6394C41.3126 14.0762 41.3792 13.0936 40.8395 12.4447C40.2997 11.7958 39.3579 11.7264 38.7363 12.2895C37.8693 13.0747 23.9232 25.705 23.0001 26.541C22.0766 25.7048 8.13046 13.0745 7.26376 12.2895C6.64197 11.7264 5.70029 11.796 5.16064 12.4447C4.62088 13.0936 4.68758 14.0762 5.30938 14.6394Z" fill="black"/>
<path d="M44.5093 6.6499H1.49081C0.667506 6.6499 0 7.34654 0 8.20564V39.7945C0 40.6537 0.667506 41.3502 1.49081 41.3502H44.5092C45.3326 41.3502 46 40.6537 46 39.7945V8.20564C46.0001 7.34654 45.3327 6.6499 44.5093 6.6499ZM43.0185 38.2388H43.0184H2.98173V9.76127H43.0185V38.2388V38.2388Z" fill="black"/>
</svg>
