<svg width="40" height="36" viewBox="0 0 40 36" fill="none" xmlns="http://www.w3.org/2000/svg">
<path d="M39.0948 7.71871C38.6448 9.20463 38.038 10.498 37.2779 11.6724L37.3096 11.6199C36.5628 12.9267 35.6709 14.4366 34.6341 16.1495C33.7451 17.5018 33.2744 18.2019 33.2222 18.2497C32.9922 18.5525 32.8321 18.9235 32.7771 19.3313L32.7755 19.3436C32.8205 19.7146 32.9838 20.0384 33.2222 20.28L33.889 21.0606C37.4562 24.9099 39.4627 27.5632 39.9083 29.0205C39.9667 29.1815 40 29.3671 40 29.5613C40 29.9009 39.8967 30.2142 39.7216 30.4714L39.725 30.4662C39.4316 30.783 39.0215 30.979 38.5681 30.979C38.5181 30.979 38.4664 30.9772 38.4181 30.972H38.4247H34.039C34.0373 30.972 34.034 30.972 34.0307 30.972C33.4689 30.972 32.9522 30.7655 32.5471 30.4224L32.5521 30.4259C31.962 29.9166 31.4369 29.3653 30.9668 28.7667L30.9518 28.7457C30.1839 27.8345 29.5027 27.0673 28.9082 26.4442C26.9278 24.4676 25.4665 23.4793 24.5241 23.4793C24.4891 23.4758 24.4491 23.4741 24.4074 23.4741C24.1324 23.4741 23.8756 23.5634 23.6639 23.7156L23.6689 23.7121C23.4956 23.9397 23.3906 24.2337 23.3906 24.5505C23.3906 24.6135 23.3939 24.673 23.4022 24.7342V24.7272C23.3572 25.2768 23.3306 25.9156 23.3306 26.5615C23.3306 26.7697 23.3339 26.9763 23.3389 27.1828V27.153V29.1815C23.3556 29.2638 23.3656 29.3583 23.3656 29.4546C23.3656 29.8781 23.1822 30.2562 22.8955 30.5064L22.8938 30.5082C22.2487 30.818 21.4952 31 20.7001 31C20.5301 31 20.3634 30.9912 20.1984 30.9755L20.22 30.9772C17.5963 30.9247 15.1625 30.1179 13.0938 28.758L13.1522 28.793C10.6334 27.1863 8.54643 25.0948 6.95616 22.6235L6.91115 22.55C5.4009 20.4462 3.99233 18.0694 2.79213 15.5631L2.67545 15.2936C1.97366 13.8899 1.24687 12.1642 0.620103 10.3895L0.520087 10.0657C0.265044 9.26764 0.0800133 8.34003 0.00333389 7.37917L0 7.33541C0 6.45097 0.495638 6.00875 1.48691 6.00875H5.87098C5.91099 6.00525 5.95766 6.0035 6.006 6.0035C6.4194 6.0035 6.80113 6.15227 7.10285 6.40255L7.09952 6.39905C7.43291 6.78234 7.67961 7.25315 7.8013 7.77821L7.8063 7.79922C8.6131 10.1918 9.46824 12.201 10.4517 14.1262L10.3401 13.8864C11.1435 15.5841 12.032 17.0456 13.0455 18.395L13.0072 18.3407C13.8962 19.4865 14.5897 20.0594 15.0875 20.0594C15.1025 20.0612 15.1209 20.0612 15.1409 20.0612C15.3876 20.0612 15.6026 19.9212 15.7193 19.7111L15.721 19.7076C15.8443 19.3751 15.916 18.9883 15.916 18.5858C15.916 18.5 15.9127 18.4142 15.906 18.3302V18.3407V11.5517C15.871 10.7518 15.6843 10.0045 15.3726 9.33415L15.3859 9.3674C15.1792 8.90535 14.9308 8.5063 14.6358 8.15101L14.6408 8.15801C14.3674 7.87097 14.1807 7.49468 14.1224 7.07463L14.1207 7.06413C14.1207 6.76659 14.2507 6.49881 14.4541 6.32379L14.4557 6.32204C14.6574 6.12777 14.9275 6.0105 15.2225 6.0105H15.2359H22.147C22.1837 6.00525 22.2254 6.0035 22.2687 6.0035C22.5938 6.0035 22.8855 6.15752 23.0788 6.39905L23.0805 6.4008C23.2522 6.72984 23.3539 7.12363 23.3539 7.54018C23.3539 7.60669 23.3506 7.67145 23.3456 7.73621V7.72746V16.7813C23.3422 16.8233 23.3406 16.8723 23.3406 16.9213C23.3406 17.2433 23.4256 17.5461 23.5723 17.8034L23.5689 17.7964C23.6906 17.9854 23.894 18.108 24.124 18.108H24.1257C24.4191 18.087 24.6858 17.9854 24.9108 17.8244L24.9058 17.8279C25.3592 17.5006 25.7493 17.1278 26.0877 16.706L26.0943 16.6973C27.1062 15.4966 28.0397 14.17 28.8531 12.7593L28.9182 12.6368C29.4916 11.6392 30.1117 10.4105 30.6734 9.14863L30.7768 8.89135L31.5203 7.33016C31.7786 6.54957 32.4721 6 33.2872 6C33.3189 6 33.3506 6 33.3822 6.00175H33.3772H37.763C38.9476 6.00175 39.3921 6.57407 39.0965 7.71871H39.0948Z" fill="black"/>
</svg>
