<svg width="37" height="34" viewBox="0 0 37 34" fill="none" xmlns="http://www.w3.org/2000/svg">
<path fill-rule="evenodd" clip-rule="evenodd" d="M7.96735 20.5943C8.04696 20.6226 8.12731 20.6424 8.20759 20.6547C8.29515 20.8711 8.40826 21.1509 8.54023 21.4781C8.86229 22.2767 9.29623 23.3569 9.74417 24.4836C10.6576 26.7816 11.5791 29.1503 11.7826 29.8284C12.0345 30.6665 12.3008 31.2364 12.5915 31.6255C12.7418 31.8267 12.9157 32.0022 13.1191 32.1353C13.2215 32.2022 13.3296 32.2571 13.4425 32.298C13.4475 32.2999 13.4525 32.3017 13.4575 32.3034C14.0395 32.5344 14.5702 32.4382 14.9024 32.3206C15.0802 32.2575 15.224 32.1816 15.3259 32.12C15.3779 32.0885 15.4218 32.0592 15.4569 32.0343L15.4651 32.0286L20.6054 28.6582L26.543 33.4442C26.6305 33.5148 26.7262 33.5741 26.8273 33.6206C27.5406 33.9477 28.2314 34.0619 28.8811 33.9686C29.5298 33.8755 30.0447 33.589 30.4281 33.2664C30.8035 32.9507 31.0582 32.5969 31.2166 32.3342C31.2975 32.1999 31.3583 32.0812 31.4012 31.9904C31.4227 31.9447 31.4399 31.9053 31.4534 31.8737L31.4705 31.832L31.477 31.8156L31.4798 31.8087L31.4809 31.8054L31.4821 31.8024C31.5132 31.7203 31.5372 31.6354 31.5536 31.5488L36.974 2.81626C36.9913 2.72437 37 2.6309 37 2.53722C37 1.69581 36.6984 0.895721 35.9895 0.410217C35.3835 -0.00474254 34.7083 -0.022603 34.2818 0.0114352C33.8215 0.0481697 33.3964 0.167628 33.1112 0.263069C32.9628 0.31275 32.8382 0.360671 32.7486 0.397233C32.7035 0.41561 32.6665 0.431386 32.6389 0.443414L32.6183 0.452555L2.21942 12.9904L2.21549 12.9919C2.19612 12.9993 2.17124 13.0091 2.14169 13.0211C2.08283 13.0452 2.00395 13.0791 1.91183 13.1231C1.73217 13.2087 1.48012 13.3424 1.22147 13.5287C0.808254 13.8262 -0.14205 14.641 0.017968 15.9859C0.145629 17.0589 0.844738 17.7178 1.27068 18.0347C1.50456 18.2087 1.72676 18.333 1.88858 18.4141C1.96364 18.4516 2.11952 18.5181 2.18714 18.5472L2.20422 18.5544L7.96735 20.5943ZM33.6822 3.09377L33.678 3.09572C33.6627 3.10264 33.6476 3.10926 33.6321 3.1156L3.19639 15.6687C3.18049 15.6752 3.16449 15.6815 3.14837 15.6874L3.13144 15.6941C3.11196 15.7021 3.07918 15.7161 3.03804 15.7356C3.01471 15.7467 2.99036 15.7589 2.96553 15.7719C2.99963 15.7922 3.03228 15.8096 3.06129 15.8241C3.08913 15.8381 3.11038 15.8476 3.122 15.8526L8.8378 17.8758C8.94242 17.9129 9.03995 17.9618 9.12947 18.0211L28.0028 6.40507L28.0204 6.39409C28.0341 6.38555 28.0522 6.37457 28.0739 6.3617C28.1168 6.33617 28.1757 6.30219 28.246 6.26461C28.3769 6.19453 28.5866 6.09048 28.8227 6.01376C28.9869 5.96035 29.4716 5.80988 29.9956 5.98659C30.319 6.09565 30.6539 6.33011 30.8717 6.72729C30.9798 6.92461 31.0374 7.12284 31.0654 7.30429C31.1397 7.59013 31.1278 7.8724 31.0698 8.11608C30.9447 8.64102 30.594 9.05047 30.2748 9.36366C30.0013 9.63216 26.463 13.2192 22.9725 16.7604C21.2318 18.5261 19.509 20.2747 18.2211 21.5816L17.3754 22.4402L28.0552 31.0488C28.3002 31.1409 28.4449 31.1363 28.5119 31.1266C28.5917 31.1151 28.657 31.0828 28.7237 31.0268C28.7983 30.964 28.8636 30.8791 28.9124 30.7983L28.9144 30.795L34.1716 2.92771C34.0936 2.94742 34.0146 2.9709 33.9386 2.99634C33.8526 3.02515 33.7815 3.05261 33.7345 3.07179C33.7111 3.0813 33.6943 3.08851 33.6852 3.09248L33.6822 3.09377ZM18.2928 26.7942L16.162 25.0766L15.6459 28.5296L18.2928 26.7942ZM14.2075 21.6686L16.3263 19.5178C17.6142 18.2108 19.3373 16.4622 21.0783 14.6961L22.847 12.902L10.9884 20.2007L11.052 20.3585C11.3752 21.1599 11.8111 22.2447 12.2614 23.3775C12.5981 24.2245 12.9502 25.1164 13.2709 25.9421L13.7857 22.4992C13.8353 22.1673 13.9895 21.8801 14.2075 21.6686Z" fill="black"/>
</svg>
