<svg width="35" height="25" viewBox="0 0 35 25" fill="none" xmlns="http://www.w3.org/2000/svg">
<path d="M29.6309 2.0721C27.3615 1.09613 24.9665 0.40022 22.506 0.00179073C22.4836 -0.00220988 22.4604 0.000532046 22.4398 0.00962186C22.4192 0.0187117 22.4021 0.0336838 22.3911 0.0523959C22.0644 0.607277 21.7678 1.17725 21.5024 1.76014C18.8503 1.38274 16.1525 1.38274 13.5003 1.76014C13.2337 1.1758 12.9329 0.605687 12.5993 0.0523959C12.5879 0.0340756 12.5708 0.0194334 12.5502 0.0103999C12.5297 0.00136639 12.5068 -0.0016351 12.4844 0.00179073C10.0246 0.399581 7.63044 1.09552 5.36224 2.0721C5.3427 2.07979 5.32621 2.093 5.31507 2.10989C0.777717 8.46238 -0.465149 14.6586 0.144662 20.7766C0.146403 20.7916 0.151357 20.8062 0.159226 20.8194C0.167095 20.8326 0.177719 20.8442 0.190467 20.8535C2.83264 22.6874 5.78817 24.0873 8.93086 24.9934C8.95304 24.9997 8.97671 24.9994 8.99871 24.9926C9.0207 24.9858 9.03997 24.973 9.05392 24.9556C9.72871 24.0949 10.3266 23.1835 10.8416 22.2307C10.8487 22.2176 10.8527 22.2033 10.8534 22.1887C10.8541 22.174 10.8515 22.1594 10.8457 22.1458C10.84 22.1322 10.8312 22.1199 10.82 22.1097C10.8088 22.0995 10.7955 22.0916 10.7808 22.0866C9.83777 21.7491 8.92476 21.3421 8.05033 20.8695C8.03446 20.8607 8.02113 20.8485 8.01152 20.8337C8.00192 20.819 7.99633 20.8023 7.99524 20.7851C7.99416 20.7679 7.99762 20.7507 8.00532 20.735C8.01302 20.7193 8.02472 20.7057 8.03939 20.6952C8.22261 20.5671 8.40651 20.4326 8.58152 20.2968C8.59706 20.2849 8.61585 20.2772 8.63578 20.2747C8.65571 20.2722 8.67598 20.275 8.69432 20.2827C14.4226 22.7335 20.6246 22.7335 26.2852 20.2827C26.3036 20.2744 26.3242 20.2712 26.3446 20.2735C26.3649 20.2758 26.3841 20.2834 26.4 20.2955C26.575 20.4307 26.7589 20.5665 26.9469 20.6952C26.9617 20.7056 26.9735 20.7191 26.9813 20.7348C26.9891 20.7504 26.9927 20.7675 26.9917 20.7848C26.9908 20.802 26.9853 20.8187 26.9759 20.8335C26.9664 20.8483 26.9532 20.8606 26.9374 20.8695C26.0641 21.3467 25.1493 21.7538 24.2028 22.0866C24.188 22.0918 24.1746 22.0999 24.1635 22.1103C24.1523 22.1207 24.1436 22.1332 24.138 22.147C24.1324 22.1608 24.1299 22.1756 24.1308 22.1904C24.1318 22.2051 24.136 22.2195 24.1433 22.2326C24.6669 23.1802 25.264 24.0905 25.9297 24.9563C25.9432 24.9741 25.9624 24.9875 25.9844 24.9945C26.0065 25.0015 26.0304 25.0018 26.0527 24.9954C29.1997 24.0918 32.1591 22.6918 34.8034 20.8554C34.8163 20.8466 34.8271 20.8353 34.835 20.8222C34.8429 20.8092 34.8478 20.7947 34.8492 20.7798C35.5793 13.7054 33.6268 7.55982 29.674 2.11245C29.6652 2.09467 29.6499 2.08038 29.6309 2.0721V2.0721ZM11.6962 17.0517C9.97137 17.0517 8.55144 15.5682 8.55144 13.7464C8.55144 11.9246 9.9447 10.4411 11.6962 10.4411C13.4621 10.4411 14.8697 11.9374 14.841 13.7464C14.8423 15.5682 13.4484 17.0517 11.6962 17.0517ZM23.327 17.0517C21.6022 17.0517 20.1823 15.5682 20.1823 13.7464C20.1823 11.9246 21.5755 10.4411 23.327 10.4411C25.0929 10.4411 26.5005 11.9374 26.4718 13.7464C26.4725 15.5682 25.0929 17.0517 23.327 17.0517Z" fill="black"/>
</svg>
